<svg width="300" height="300" viewBox="0 0 300 300" fill="none" xmlns="http://www.w3.org/2000/svg">
<path d="M64.8681 207.31C78.544 202.495 86.2918 199.829 100.217 196.672L202.281 202.244L211.243 206.297L213.732 206.803L217.715 201.231C226.712 204.059 231.031 205.394 239.123 209.336C243.611 211.957 244.676 212.946 247.587 217.441C254.679 229.619 256.549 236.689 261.03 249.353C266.852 269.105 266.318 279.973 268 299.501H34C34.2737 289.869 34.0129 284.506 34.9957 275.187C35.8764 260.091 37.9654 252.135 42.4638 238.715C45.7083 230.139 47.6584 225.384 52.4213 217.441C55.4085 211.869 58.9835 210.168 64.8681 207.31Z" fill="black"/>
<path d="M121 175.208H179C189.12 183.362 193.706 188.447 200.5 198.17C207.909 213.172 211.362 221.939 215.5 238.602C216.5 246.09 213.5 249.085 209 251.081C201.971 253.373 200.502 254.533 198 258.569L183 299.501H117.5C107.216 271.714 101.328 255.699 98.5 254.576L90 250.582C84.8724 247.95 83.8033 245.089 85 237.604C89.2334 220.265 92.1059 211.944 98.5 200.666C106.058 188.604 110.906 182.895 121 175.208Z" fill="#232222"/>
<path d="M72 272.047C72.7162 262.106 75.22 260.716 79 272.047C82.78 283.377 83.5 299.501 83.5 299.501H71C71 299.501 71.2838 281.987 72 272.047Z" fill="#232222"/>
<path d="M228.5 272.545C227.784 262.604 225.28 261.213 221.5 272.545C217.72 283.876 217 300 217 300H229.5C229.5 300 229.216 282.485 228.5 272.545Z" fill="#232222"/>
<path d="M116 194.176L124.5 184.193L150 210.15L175.5 184.193L179.5 188.686L184 194.176L168.5 256.572L169 299.501H131L131.5 256.572L116 194.176Z" fill="white"/>
<path d="M135 228.12C138.335 227.424 143.411 221.077 150 210.649C156.086 220.331 159.265 224.183 164.5 228.12L162 239.102C161.316 240.229 160.638 240.652 159 241.098L169 299.501H131L141 241.098C139.607 240.851 138.915 240.5 138 239.102L135 228.12Z" fill="#DD0D0D"/>
<path d="M144.5 219.135L150 210.649C156.739 220.932 159.954 224.884 164.5 228.12L162 239.102C160.968 240.463 160.293 240.824 159 241.098H152.5C150.883 240.599 150.16 240.041 149.5 238.103L144.5 219.135Z" fill="#E33838"/>
<path d="M124.5 184.193L150 210.15L175.5 184.193L184 193.677C179.428 209.117 176.063 217.102 169.5 226.622C167.284 228.98 165.853 228.961 163 227.121C156.943 221.314 153.997 217.771 150 210.649C141.953 223.28 138.821 226.699 135 228.12C132.926 228.934 131.717 228.157 129.5 225.125C122.512 212.726 120.186 207.476 116 193.677L124.5 184.193Z" fill="#BBBBBB"/>
<path d="M124.5 181.697H176L175.5 184.193L150 210.15L124.5 184.193V181.697Z" fill="#D7D7D7"/>
<path d="M72.2516 79.8669H232.752L231.752 80.8652C212.732 96.2911 184.484 98.4399 160.752 89.3511H145.941C141.752 100.333 77.7516 89.3511 71 81.3644L72.2516 79.8669Z" fill="black" fill-opacity="0.85"/>
<path d="M99.2516 119.8C93.5171 114.336 92.2516 98.3361 98.7516 86.3561C100.356 83.3996 107.593 82.1759 117.586 82.0099C119.104 81.9229 120.583 81.9205 122.041 82.0017C153.234 82.3598 204.252 90.8486 204.252 90.8486C207.656 104.529 207.22 111.224 200.752 120.799C198.255 133.206 195.865 138.945 191.252 148.752L175.252 184.193C167.06 190.941 161.799 192.399 151.752 192.679C136.938 193.35 130.547 190.773 123.752 181.198L109.252 148.752C103.84 136.599 102.073 130.497 99.2516 119.8Z" fill="#777373"/>
<path d="M238.752 150.749C236.372 180.397 229.44 191.39 213.752 207.654L238.752 150.749Z" fill="#050505"/>
<path d="M190.841 147.754L197.252 150.749L184.752 177.704L179.752 174.709L190.841 147.754Z" fill="#565252"/>
<path d="M202.252 137.77L208.252 139.767L184.752 193.677L178.752 190.682L202.252 137.77Z" fill="black"/>
<path d="M208.252 137.77L238.752 150.749L213.752 207.654L184.252 194.676L208.252 137.77Z" fill="#565252"/>
<ellipse cx="151.752" cy="156.739" rx="25" ry="24.9584" fill="black"/>
<ellipse cx="152.252" cy="156.739" rx="18.5" ry="17.97" fill="#605E5E"/>
<ellipse cx="151.252" cy="146.256" rx="3.5" ry="3.49418" fill="black"/>
<ellipse cx="160.252" cy="151.248" rx="3.5" ry="3.49418" fill="black"/>
<ellipse cx="160.252" cy="161.231" rx="3.5" ry="3.49418" fill="black"/>
<ellipse cx="151.252" cy="166.223" rx="3.5" ry="3.49418" fill="black"/>
<ellipse cx="143.252" cy="161.231" rx="3.5" ry="3.49418" fill="black"/>
<ellipse cx="143.252" cy="151.248" rx="3.5" ry="3.49418" fill="black"/>
<rect x="143.752" y="89.8503" width="13" height="8.98502" fill="#4E4343"/>
<path d="M152.252 87.8536L201.752 86.8552C208.306 97.2525 206.752 106.656 205.252 111.314C201.715 122.296 197.907 126.073 183.252 126.789C174.093 124.19 168.252 120.299 162.252 112.313C156.752 103.328 154.678 98.5674 152.252 87.8536Z" fill="#231818"/>
<path d="M98.7516 85.3578L147.252 90.3494C146.571 97.9979 144.873 102.631 140.252 111.314C135.692 117.244 132.485 120.061 125.752 124.293C113.816 129.408 108.001 128.632 98.7515 120.3C92.7183 106.7 91.6964 98.6553 98.7516 85.3578Z" fill="#231818"/>
<path d="M195.752 86.8552L160.252 89.8502C160.346 97.9925 162.252 103.328 167.252 109.817C169.252 114.309 173.252 117.304 179.252 120.299C189.752 124.293 200.252 119.301 200.752 109.318C201.887 99.3387 201.186 93.4372 195.752 86.8552Z" fill="#E4DFDF"/>
<path d="M196.252 87.3544L160.252 89.8503C160.137 93.1335 160.28 95.4058 161.252 98.3361C178.307 99.3341 197.252 94.3428 199.752 93.8436C199.009 91.3631 198.292 89.9468 196.252 87.3544Z" fill="#A7A1A1"/>
<path d="M104.752 87.3544L139.752 90.8486C139.752 92.8453 138.252 106.323 129.252 113.311C120.252 121.298 111.252 121.797 104.752 115.807C102.23 112.677 99.9682 108.319 99.2516 102.829C98.535 97.3378 102.151 92.0291 104.752 87.3544Z" fill="#E4DFDF"/>
<path d="M104.252 86.3561L140.344 90.3494C140.344 92.3461 138.252 98.8353 138.252 98.8353C123.435 99.5068 115.788 97.331 101.752 92.8453C101.752 92.8453 103.252 87.8536 104.252 86.3561Z" fill="#A7A1A1"/>
<path d="M71 79.8669C80 78.3693 222.642 79.2373 230 79.8669C237.358 80.4964 211.936 86.0157 211.5 85.8569C200.951 87.4324 168.237 89.9085 150 90.3494C133.92 90.6367 114.662 88.8559 91 85.8569C79.89 84.9146 62 81.3644 71 79.8669Z" fill="black"/>
<path d="M96.5 79.8668H203.5L199 61.3976L196 52.9118L192.5 42.4292L190 34.9417L187 26.955L184 18.9683C183.229 16.915 183 15.9734 183 15.9734C182.298 14.4875 181.784 13.7071 180.5 12.4792C178.5 9.98334 162.5 8.48582 159.5 10.9817C157.354 13.3383 156.42 14.9167 155 17.97C154.645 18.4383 154.415 18.6397 154 18.9683C152.816 19.7902 151.909 19.9731 150 19.9667C148.362 20.0218 147.481 19.8353 146 18.9683C145.589 18.6769 145.355 18.5001 145 17.97L143 14.4758C142.177 13.0151 141.645 12.2397 140.5 10.9817C138 8.98499 120.5 7.4875 118 13.9767C117.012 15.8767 116.466 16.9755 115.5 18.9683C113.73 22.5004 112.942 24.6039 111.579 28.2406L111.5 28.4525L109 34.9417L105.5 44.9251L102.5 54.9085L100.5 62.396L98.5 70.3827L96.5 79.8668Z" fill="black"/>
<path d="M118.5 12.9784L119.5 11.9801L121 10.9817H131.5C145.5 10.9817 145.5 22.4626 112.5 25.4576L118.5 12.9784Z" fill="url(#paint0_linear)" fill-opacity="0.2"/>
<path d="M181.756 14.1832L180.715 13.0816L179.154 11.98H168.227C153.657 11.98 153.657 24.6486 188 27.9534L181.756 14.1832Z" fill="url(#paint1_linear)" fill-opacity="0.2"/>
<path d="M100.63 61.8968H199.151L200 64.8918L201 68.386L202 72.3793L203.403 79.8669H96.6588L97.5 74.8752L98.5 70.3827L100.63 61.8968Z" fill="#443F3F"/>
<rect width="300" height="300" fill="#B19A9A" fill-opacity="0.19"/>
<defs>
<linearGradient id="paint0_linear" x1="142" y1="14.9751" x2="109.5" y2="16.9784" gradientUnits="userSpaceOnUse">
<stop stop-color="#777373"/>
<stop offset="1" stop-color="#594D4D" stop-opacity="0.16"/>
</linearGradient>
<linearGradient id="paint1_linear" x1="159" y1="18.4692" x2="188.933" y2="16.7816" gradientUnits="userSpaceOnUse">
<stop stop-color="#7A7575"/>
<stop offset="0.971054" stop-color="#5E4F4F" stop-opacity="0.44"/>
</linearGradient>
</defs>
</svg>
