<svg width="300" height="300" viewBox="0 0 300 300" fill="none" xmlns="http://www.w3.org/2000/svg">
<path d="M6.52233 106.756H289.424L287.662 108.266C254.137 131.594 204.347 134.843 162.515 121.099H136.41C129.025 137.706 16.2168 121.099 4.31625 109.021L6.52233 106.756Z" fill="black" fill-opacity="0.85"/>
<path d="M54.1133 167.145C44.0055 158.882 41.7749 134.686 53.232 116.57C56.0594 112.099 68.8166 110.248 86.4303 109.997C89.105 109.866 91.7128 109.862 94.2831 109.985C149.264 110.526 239.189 123.363 239.189 123.363C245.189 144.051 244.421 154.176 233.02 168.655C228.62 187.418 224.406 196.096 216.275 210.927L188.073 264.522C173.634 274.727 164.362 276.93 146.651 277.354C120.541 278.37 109.276 274.473 97.2977 259.993L71.7396 210.927C62.2011 192.549 59.086 183.322 54.1133 167.145Z" fill="#777373"/>
<path d="M300 213.946C295.805 258.781 283.587 275.405 255.934 300L300 213.946Z" fill="#050505"/>
<path d="M215.552 209.417L226.851 213.946L204.818 254.709L196.005 250.179L215.552 209.417Z" fill="#565252"/>
<path d="M235.664 194.32L246.24 197.339L204.818 278.864L194.242 274.335L235.664 194.32Z" fill="black"/>
<path d="M246.24 194.32L300 213.946L255.934 300L203.937 280.374L246.24 194.32Z" fill="#565252"/>
<ellipse cx="146.651" cy="223.005" rx="44.0657" ry="37.7429" fill="black"/>
<ellipse cx="147.533" cy="223.005" rx="32.6086" ry="27.1749" fill="#605E5E"/>
<ellipse cx="145.77" cy="207.153" rx="6.1692" ry="5.284" fill="black"/>
<ellipse cx="161.634" cy="214.701" rx="6.1692" ry="5.284" fill="black"/>
<ellipse cx="161.634" cy="229.798" rx="6.1692" ry="5.284" fill="black"/>
<ellipse cx="145.77" cy="237.347" rx="6.1692" ry="5.284" fill="black"/>
<ellipse cx="131.669" cy="229.798" rx="6.1692" ry="5.284" fill="black"/>
<ellipse cx="131.669" cy="214.701" rx="6.1692" ry="5.284" fill="black"/>
<rect x="132.55" y="121.854" width="22.9142" height="13.5874" fill="#4E4343"/>
<path d="M147.533 118.834L234.783 117.324C246.336 133.048 243.596 147.268 240.952 154.312C234.719 170.919 228.007 176.631 202.174 177.713C186.031 173.783 175.735 167.9 165.159 155.822C155.464 142.235 151.81 135.036 147.533 118.834Z" fill="#231818"/>
<path d="M53.2319 115.06L138.719 122.609C137.519 134.175 134.527 141.181 126.381 154.313C118.344 163.28 112.692 167.539 100.823 173.939C79.7846 181.673 69.5359 180.501 53.2318 167.9C42.5974 147.335 40.7962 135.169 53.2319 115.06Z" fill="#231818"/>
<path d="M224.207 117.324L161.634 121.854C161.799 134.167 165.159 142.235 173.972 152.048C177.497 158.842 184.548 163.371 195.124 167.9C213.631 173.939 232.139 166.39 233.02 151.293C235.022 136.202 233.786 127.278 224.207 117.324Z" fill="#E4DFDF"/>
<path d="M225.088 118.079L161.634 121.854C161.432 126.819 161.684 130.255 163.396 134.686C193.458 136.195 226.851 128.647 231.258 127.893C229.948 124.141 228.684 122 225.088 118.079Z" fill="#A7A1A1"/>
<path d="M63.8077 118.079L125.5 123.363C125.5 126.383 122.856 146.764 106.992 157.332C91.1285 169.41 75.2648 170.165 63.8077 161.106C59.3635 156.373 55.3764 149.783 54.1133 141.48C52.8502 133.177 59.2239 125.149 63.8077 118.079Z" fill="#E4DFDF"/>
<path d="M62.9265 116.57L126.544 122.608C126.544 125.628 122.856 135.441 122.856 135.441C96.74 136.457 83.2607 133.166 58.5199 126.383C58.5199 126.383 61.1638 118.834 62.9265 116.57Z" fill="#A7A1A1"/>
<path d="M4.31625 106.757C20.1799 104.492 271.605 105.804 284.574 106.757C297.544 107.709 252.735 116.055 251.966 115.815C233.372 118.197 175.708 121.942 143.564 122.609C115.221 123.043 81.2761 120.35 39.5688 115.815C19.986 114.39 -11.5474 109.021 4.31625 106.757Z" fill="black"/>
<path d="M49.2633 106.756H237.865L229.933 78.8268L224.645 65.9942L218.476 50.1421L214.069 38.8193L208.781 26.7416L203.493 14.6638C202.135 11.5588 201.731 10.1347 201.731 10.1347C200.493 7.88784 199.587 6.70757 197.324 4.85073C193.799 1.07645 165.597 -1.18816 160.309 2.58612C156.527 6.14994 154.879 8.53681 152.377 13.1541C151.751 13.8623 151.347 14.1669 150.614 14.6639C148.527 15.9067 146.928 16.1833 143.564 16.1736C140.676 16.2569 139.124 15.9749 136.513 14.6639C135.79 14.2231 135.377 13.9557 134.751 13.1541L131.226 7.87012C129.775 5.66115 128.838 4.48854 126.819 2.58612C122.412 -0.433296 91.5664 -2.69784 87.1598 7.11532C85.4179 9.98851 84.4559 11.6503 82.7533 14.6639C79.6335 20.0052 78.2444 23.1861 75.8427 28.6857L75.7027 29.0061L71.2962 38.8193L65.127 53.9165L59.8391 69.0136L56.3138 80.3365L52.7886 92.4142L49.2633 106.756Z" fill="black"/>
<path d="M88.0412 5.60564L89.8038 4.09593L92.4477 2.58621H110.955C135.632 2.58621 135.632 19.9479 77.4654 24.4771L88.0412 5.60564Z" fill="url(#paint0_linear)" fill-opacity="0.2"/>
<path d="M199.538 7.42767L197.703 5.76178L194.952 4.09589H175.691C150.01 4.09589 150.01 23.2537 210.544 28.2513L199.538 7.42767Z" fill="url(#paint1_linear)" fill-opacity="0.2"/>
<path d="M56.5423 79.5817H230.2L231.695 84.1108L233.458 89.3948L235.221 95.4337L237.694 106.757H49.5431L51.0259 99.208L52.7885 92.4142L56.5423 79.5817Z" fill="#443F3F"/>
<defs>
<linearGradient id="paint0_linear" x1="129.463" y1="8.62507" x2="72.2558" y2="12.7353" gradientUnits="userSpaceOnUse">
<stop stop-color="#777373"/>
<stop offset="1" stop-color="#594D4D" stop-opacity="0.16"/>
</linearGradient>
<linearGradient id="paint1_linear" x1="159.428" y1="13.909" x2="212.128" y2="10.4459" gradientUnits="userSpaceOnUse">
<stop stop-color="#7A7575"/>
<stop offset="0.971054" stop-color="#5E4F4F" stop-opacity="0.44"/>
</linearGradient>
</defs>
</svg>
